<svg width="73" height="50" viewBox="0 0 73 50" fill="none" xmlns="http://www.w3.org/2000/svg">
<path d="M15.908 8.55422L12 1V39H52V27.6667H72L63.6667 24.3333" stroke="black" stroke-width="2"/>
<circle cx="5" cy="21" r="5" fill="#1B7DF3"/>
<path d="M5.09766 18.2812V24H4.375V19.1836L2.91797 19.7148V19.0625L4.98438 18.2812H5.09766Z" fill="white"/>
<circle cx="33" cy="45" r="5" fill="#1B7DF3"/>
<path d="M34.4492 47.4062V48H30.7266V47.4805L32.5898 45.4062C32.819 45.151 32.9961 44.9349 33.1211 44.7578C33.2487 44.5781 33.3372 44.418 33.3867 44.2773C33.4388 44.1341 33.4648 43.9883 33.4648 43.8398C33.4648 43.6523 33.4258 43.4831 33.3477 43.332C33.2721 43.1784 33.1602 43.056 33.0117 42.9648C32.8633 42.8737 32.6836 42.8281 32.4727 42.8281C32.2201 42.8281 32.0091 42.8776 31.8398 42.9766C31.6732 43.0729 31.5482 43.2083 31.4648 43.3828C31.3815 43.5573 31.3398 43.7578 31.3398 43.9844H30.6172C30.6172 43.6641 30.6875 43.3711 30.8281 43.1055C30.9688 42.8398 31.1771 42.6289 31.4531 42.4727C31.7292 42.3138 32.069 42.2344 32.4727 42.2344C32.832 42.2344 33.1393 42.2982 33.3945 42.4258C33.6497 42.5508 33.8451 42.7279 33.9805 42.957C34.1185 43.1836 34.1875 43.4492 34.1875 43.7539C34.1875 43.9206 34.1589 44.0898 34.1016 44.2617C34.0469 44.431 33.9701 44.6003 33.8711 44.7695C33.7747 44.9388 33.6615 45.1055 33.5312 45.2695C33.4036 45.4336 33.2669 45.5951 33.1211 45.7539L31.5977 47.4062H34.4492Z" fill="white"/>
<circle cx="59" cy="35" r="5" fill="#1B7DF3"/>
<path d="M58.7773 34.8008H59.293C59.5456 34.8008 59.7539 34.7591 59.918 34.6758C60.0846 34.5898 60.2083 34.474 60.2891 34.3281C60.3724 34.1797 60.4141 34.013 60.4141 33.8281C60.4141 33.6094 60.3776 33.4258 60.3047 33.2773C60.2318 33.1289 60.1224 33.0169 59.9766 32.9414C59.8307 32.8659 59.6458 32.8281 59.4219 32.8281C59.2188 32.8281 59.0391 32.8685 58.8828 32.9492C58.7292 33.0273 58.6081 33.1393 58.5195 33.2852C58.4336 33.431 58.3906 33.6029 58.3906 33.8008H57.668C57.668 33.5117 57.7409 33.2487 57.8867 33.0117C58.0326 32.7747 58.237 32.5859 58.5 32.4453C58.7656 32.3047 59.0729 32.2344 59.4219 32.2344C59.7656 32.2344 60.0664 32.2956 60.3242 32.418C60.582 32.5378 60.7826 32.7174 60.9258 32.957C61.069 33.194 61.1406 33.4896 61.1406 33.8438C61.1406 33.987 61.1068 34.1406 61.0391 34.3047C60.974 34.4661 60.8711 34.6172 60.7305 34.7578C60.5924 34.8984 60.4128 35.0143 60.1914 35.1055C59.9701 35.194 59.7044 35.2383 59.3945 35.2383H58.7773V34.8008ZM58.7773 35.3945V34.9609H59.3945C59.7565 34.9609 60.056 35.0039 60.293 35.0898C60.5299 35.1758 60.7161 35.2904 60.8516 35.4336C60.9896 35.5768 61.0859 35.7344 61.1406 35.9062C61.1979 36.0755 61.2266 36.2448 61.2266 36.4141C61.2266 36.6797 61.181 36.9154 61.0898 37.1211C61.0013 37.3268 60.875 37.5013 60.7109 37.6445C60.5495 37.7878 60.3594 37.8958 60.1406 37.9688C59.9219 38.0417 59.6836 38.0781 59.4258 38.0781C59.1784 38.0781 58.9453 38.043 58.7266 37.9727C58.5104 37.9023 58.319 37.8008 58.1523 37.668C57.9857 37.5326 57.8555 37.3672 57.7617 37.1719C57.668 36.974 57.6211 36.7487 57.6211 36.4961H58.3438C58.3438 36.694 58.3867 36.8672 58.4727 37.0156C58.5612 37.1641 58.6862 37.2799 58.8477 37.3633C59.0117 37.444 59.2044 37.4844 59.4258 37.4844C59.6471 37.4844 59.8372 37.4466 59.9961 37.3711C60.1576 37.293 60.2812 37.1758 60.3672 37.0195C60.4557 36.8633 60.5 36.6667 60.5 36.4297C60.5 36.1927 60.4505 35.9987 60.3516 35.8477C60.2526 35.694 60.112 35.5807 59.9297 35.5078C59.75 35.4323 59.5378 35.3945 59.293 35.3945H58.7773Z" fill="white"/>
<circle cx="59" cy="20" r="5" fill="#1B7DF3"/>
<path d="M60.5664 21.0859V21.6797H56.457V21.2539L59.0039 17.3125H59.5938L58.9609 18.4531L57.2773 21.0859H60.5664ZM59.7734 17.3125V23H59.0508V17.3125H59.7734Z" fill="white"/>
</svg>
