<svg width="229" height="161" viewBox="0 0 229 161" fill="none" xmlns="http://www.w3.org/2000/svg">
<path d="M69.5 160L224.5 25.5" stroke="#FF0000"/>
<path d="M1 41C1 41 1 85.2997 1 126.5V41ZM1 41L70.5 65M1 41L161 1L227.5 23M70.5 65V159.5L227.5 23M70.5 65L227.5 23" stroke="black"/>
<path d="M70.5 160L56 153V77L12.5 60V131.5L1 126" stroke="black"/>
<path d="M27 34.5L97.5 57.5V136" stroke="black"/>
<path d="M53 28L121.5 51V115" stroke="black"/>
<path d="M75.5 22.5L144.5 45V95" stroke="black"/>
<path d="M98 17L165.5 39V77" stroke="black"/>
<path d="M121.5 11L188.5 33V57" stroke="black"/>
<path d="M142 6L209.5 28V38.5" stroke="black"/>
<path d="M83.2273 107.053C83.2273 110.105 80.9378 112.579 78.1136 112.579C75.2895 112.579 73 110.105 73 107.053C73 104.001 75.2895 101.526 78.1136 101.526C80.9378 101.526 83.2273 104.001 83.2273 107.053Z" fill="#1B7DF3"/>
<path d="M165.727 15.5262C165.727 18.5783 163.438 21.0525 160.614 21.0525C157.789 21.0525 155.5 18.5783 155.5 15.5262C155.5 12.4741 157.789 9.99988 160.614 9.99988C163.438 9.99988 165.727 12.4741 165.727 15.5262Z" fill="#1B7DF3"/>
<path d="M130 42.5262C130 45.5783 127.711 48.0526 124.886 48.0526C122.062 48.0526 119.773 45.5783 119.773 42.5262C119.773 39.4741 122.062 36.9999 124.886 36.9999C127.711 36.9999 130 39.4741 130 42.5262Z" fill="#1B7DF3"/>
<path d="M127.242 44.25V45H123.43V44.3555L125.281 42.3359C125.484 42.1068 125.645 41.9089 125.762 41.7422C125.879 41.5755 125.961 41.4258 126.008 41.293C126.057 41.1576 126.082 41.026 126.082 40.8984C126.082 40.7188 126.048 40.5612 125.98 40.4258C125.915 40.2878 125.819 40.1797 125.691 40.1016C125.564 40.0208 125.409 39.9805 125.227 39.9805C125.016 39.9805 124.839 40.026 124.695 40.1172C124.552 40.2083 124.444 40.3346 124.371 40.4961C124.298 40.6549 124.262 40.8372 124.262 41.043H123.32C123.32 40.7122 123.396 40.4102 123.547 40.1367C123.698 39.8607 123.917 39.6419 124.203 39.4805C124.49 39.3164 124.835 39.2344 125.238 39.2344C125.618 39.2344 125.941 39.2982 126.207 39.4258C126.473 39.5534 126.674 39.7344 126.812 39.9688C126.953 40.2031 127.023 40.4805 127.023 40.8008C127.023 40.9779 126.995 41.1536 126.938 41.3281C126.88 41.5026 126.798 41.6771 126.691 41.8516C126.587 42.0234 126.464 42.1966 126.32 42.3711C126.177 42.543 126.02 42.7174 125.848 42.8945L124.617 44.25H127.242Z" fill="white"/>
<path d="M79 104.767V110.474H78.0586V105.884L76.6641 106.356V105.579L78.8867 104.767H79Z" fill="white"/>
<path d="M159.535 14.7303H160.098C160.316 14.7303 160.497 14.6926 160.641 14.6171C160.786 14.5415 160.895 14.4374 160.965 14.3046C161.035 14.1718 161.07 14.0194 161.07 13.8475C161.07 13.6678 161.038 13.5142 160.973 13.3866C160.91 13.2564 160.814 13.1561 160.684 13.0858C160.556 13.0155 160.393 12.9803 160.195 12.9803C160.029 12.9803 159.878 13.0142 159.742 13.0819C159.609 13.147 159.504 13.2408 159.426 13.3632C159.348 13.483 159.309 13.6262 159.309 13.7928H158.363C158.363 13.4908 158.443 13.2225 158.602 12.9882C158.76 12.7538 158.977 12.5702 159.25 12.4374C159.526 12.302 159.836 12.2343 160.18 12.2343C160.547 12.2343 160.867 12.2955 161.141 12.4178C161.417 12.5376 161.632 12.7173 161.785 12.9569C161.939 13.1965 162.016 13.4934 162.016 13.8475C162.016 14.009 161.978 14.1731 161.902 14.3397C161.827 14.5064 161.715 14.6587 161.566 14.7968C161.418 14.9322 161.233 15.0428 161.012 15.1288C160.79 15.2121 160.534 15.2538 160.242 15.2538H159.535V14.7303ZM159.535 15.4647V14.9491H160.242C160.576 14.9491 160.859 14.9882 161.094 15.0663C161.331 15.1444 161.523 15.2525 161.672 15.3905C161.82 15.5259 161.928 15.6809 161.996 15.8553C162.066 16.0298 162.102 16.2147 162.102 16.41C162.102 16.6757 162.053 16.9126 161.957 17.121C161.863 17.3267 161.729 17.5012 161.555 17.6444C161.38 17.7876 161.176 17.8957 160.941 17.9686C160.71 18.0415 160.457 18.078 160.184 18.078C159.939 18.078 159.704 18.0441 159.48 17.9764C159.257 17.9087 159.056 17.8085 158.879 17.6757C158.702 17.5402 158.561 17.3723 158.457 17.1718C158.355 16.9686 158.305 16.7343 158.305 16.4686H159.246C159.246 16.6379 159.285 16.7876 159.363 16.9178C159.444 17.0455 159.556 17.1457 159.699 17.2186C159.845 17.2915 160.012 17.328 160.199 17.328C160.397 17.328 160.568 17.2928 160.711 17.2225C160.854 17.1522 160.964 17.0481 161.039 16.91C161.117 16.772 161.156 16.6053 161.156 16.41C161.156 16.1887 161.113 16.009 161.027 15.871C160.941 15.733 160.819 15.6314 160.66 15.5663C160.501 15.4986 160.314 15.4647 160.098 15.4647H159.535Z" fill="white"/>
<path d="M78 148L80.1651 144.25H75.8349L78 148ZM77.625 114V144.625H78.375V114H77.625Z" fill="#FF0000"/>
<path d="M78 65.9999L75.8349 69.7499L80.1651 69.7499L78 65.9999ZM78.375 99.9999L78.375 69.3749L77.625 69.3749L77.625 99.9999L78.375 99.9999Z" fill="#FF0000"/>
<path d="M215.5 19.4999L211.335 18.3163L212.392 22.5153L215.5 19.4999ZM64.9999 60.104L69.1971 61.1688L68.0206 57.0016L64.9999 60.104ZM131.091 41.1458L212.319 20.6879L212.136 19.9606L130.908 40.4185L131.091 41.1458ZM118.398 44.639L68.146 58.8262L68.3498 59.548L118.602 45.3608L118.398 44.639Z" fill="#FF0000"/>
</svg>
