<svg width="68" height="50" viewBox="0 0 68 50" fill="none" xmlns="http://www.w3.org/2000/svg">
<path d="M20.7522 48.3151L65.6682 9.35181" stroke="#FF0000"/>
<path d="M1 13.8569C1 13.8569 1 26.6376 1 38.524V13.8569ZM1 13.8569C10.008 11.966 14.408 13.501 21.0921 20.781M1 13.8569L46.7278 1.66966M21.0921 20.781V48.0446L66.48 8.66388M21.0921 20.781L66.48 8.66388M66.48 8.66388C59.7959 1.38388 55.3959 -0.151132 46.3879 1.73982M8.77749 11.7806C17.7855 9.88965 22.1855 11.4247 28.8696 18.7047M28.5297 6.50737C37.5377 4.61642 41.9378 6.15145 48.6218 13.4315M15.8125 9.90247C24.8205 8.01152 29.2206 9.54655 35.9046 16.8266M22.577 8.09658C31.585 6.20563 35.985 7.74065 42.6691 15.0207M35.1589 4.7376C44.1669 2.84665 48.5669 4.38167 55.251 11.6617M41.1116 3.14841C50.1196 1.25746 54.5197 2.79249 61.2037 10.0725" stroke="black"/>
<path d="M21.0228 48.3152L16.8454 46.2885V24.2851L4.31313 19.3633V40.0639L1 38.4715" stroke="black"/>
<path d="M28.8696 18.6796V41.2802" stroke="black"/>
<path d="M35.9047 16.816V35.3273" stroke="black"/>
<path d="M42.6691 15.0898V29.6451" stroke="black"/>
<path d="M48.6219 13.2661V24.2336" stroke="black"/>
<path d="M55.3863 11.6342V18.5516" stroke="black"/>
<path d="M61.3391 10.0804V13.1401" stroke="black"/>
</svg>
