<svg width="67" height="49" viewBox="0 0 67 49" fill="none" xmlns="http://www.w3.org/2000/svg">
<path d="M20.7281 47.4826L65.5892 8.56689" stroke="#FF0000"/>
<path d="M1 13.0665C1 13.0665 1 25.8315 1 37.7034V13.0665ZM1 13.0665H11.945M1 13.0665L9.91818 10.8416L19.3769 11.1356M21.0676 19.9822V47.2124L66.4 7.87983L21.0676 19.9822ZM21.0676 19.9822L11.945 13.0665M11.945 13.0665L19.3769 11.1356M57.3467 1.27026L19.3769 11.1356" stroke="black"/>
<path d="M1 13.0665C1 13.0665 1 25.8315 1 37.7034V13.0665ZM1 13.0665H11.945M1 13.0665L9.91818 10.8415M21.0676 19.9821V47.2124L66.4 7.87981L21.0676 19.9821ZM21.0676 19.9821L11.945 13.0665M47.888 1L9.91818 10.8415M11.945 13.0665L19.3769 11.1356M57.3467 1.27025L19.3769 11.1356M19.3769 11.1356L9.91818 10.8415" stroke="black"/>
<path d="M26.4033 9.37767L16.6744 9.10742" stroke="black"/>
<path d="M33.4297 7.48595L23.9711 7.2157" stroke="black"/>
<path d="M39.3752 5.86449L30.1868 5.59424" stroke="black"/>
<path d="M46.1314 4.24303L36.4025 3.97278" stroke="black"/>
<path d="M52.3471 2.62144L42.7533 2.3512" stroke="black"/>
<path d="M57.2116 1.27025L47.7529 1" stroke="black"/>
<path d="M20.9983 47.4827L16.826 45.4585V23.482L4.30908 18.5662V39.2415L1 37.6511" stroke="black"/>
<path d="M28.8355 40.4562V17.8832L19.512 11.2694" stroke="black"/>
<path d="M39.105 5.9996L48.5636 12.6207M26.2682 9.3777L35.862 16.1339M33.1595 7.62109L42.6182 14.2422M45.8612 4.24299L55.3198 10.8641M57.2116 1.27026L66.4 7.75621M51.9417 2.6215L61.2653 9.24258" stroke="black"/>
<path d="M35.862 16.0221V34.5108" stroke="black"/>
<path d="M42.6182 14.2981V28.8356" stroke="black"/>
<path d="M48.5636 12.4766V23.4306" stroke="black"/>
<path d="M55.3198 10.8464V17.7554" stroke="black"/>
<path d="M61.2653 9.29456V12.3504" stroke="black"/>
</svg>
