<svg width="229" height="161" viewBox="0 0 229 161" fill="none" xmlns="http://www.w3.org/2000/svg">
<path d="M69.5 160L224.5 25.5" stroke="#FF0000"/>
<path d="M1 41C1 41 1 85.2997 1 126.5V41ZM1 41L70.5 65M1 41L161 1L227.5 23M70.5 65V159.5L227.5 23M70.5 65L227.5 23" stroke="black"/>
<path d="M70.5 160L56 153V77L12.5 60V131.5L1 126" stroke="black"/>
<path d="M27 34.5L97.5 57.5V136" stroke="black"/>
<path d="M53 28L121.5 51V115" stroke="black"/>
<path d="M75.5 22.5L144.5 45V95" stroke="black"/>
<path d="M98 17L165.5 39V77" stroke="black"/>
<path d="M121.5 11L188.5 33V57" stroke="black"/>
<path d="M142 6L209.5 28V38.5" stroke="black"/>
</svg>
