<svg width="65" height="51" viewBox="0 0 65 51" fill="none" xmlns="http://www.w3.org/2000/svg">
<path d="M16.908 8.55422L13 1V39H53V10.3855L49.5517 16.7952" stroke="black" stroke-width="2"/>
<circle cx="5" cy="22" r="5" fill="#1B7DF3"/>
<path d="M5.09766 19.2812V25H4.375V20.1836L2.91797 20.7148V20.0625L4.98438 19.2812H5.09766Z" fill="white"/>
<circle cx="33" cy="46" r="5" fill="#1B7DF3"/>
<path d="M34.4492 48.4062V49H30.7266V48.4805L32.5898 46.4062C32.819 46.151 32.9961 45.9349 33.1211 45.7578C33.2487 45.5781 33.3372 45.418 33.3867 45.2773C33.4388 45.1341 33.4648 44.9883 33.4648 44.8398C33.4648 44.6523 33.4258 44.4831 33.3477 44.332C33.2721 44.1784 33.1602 44.056 33.0117 43.9648C32.8633 43.8737 32.6836 43.8281 32.4727 43.8281C32.2201 43.8281 32.0091 43.8776 31.8398 43.9766C31.6732 44.0729 31.5482 44.2083 31.4648 44.3828C31.3815 44.5573 31.3398 44.7578 31.3398 44.9844H30.6172C30.6172 44.6641 30.6875 44.3711 30.8281 44.1055C30.9688 43.8398 31.1771 43.6289 31.4531 43.4727C31.7292 43.3138 32.069 43.2344 32.4727 43.2344C32.832 43.2344 33.1393 43.2982 33.3945 43.4258C33.6497 43.5508 33.8451 43.7279 33.9805 43.957C34.1185 44.1836 34.1875 44.4492 34.1875 44.7539C34.1875 44.9206 34.1589 45.0898 34.1016 45.2617C34.0469 45.431 33.9701 45.6003 33.8711 45.7695C33.7747 45.9388 33.6615 46.1055 33.5312 46.2695C33.4036 46.4336 33.2669 46.5951 33.1211 46.7539L31.5977 48.4062H34.4492Z" fill="white"/>
<circle cx="60" cy="26" r="5" fill="#1B7DF3"/>
<path d="M59.7773 25.8008H60.293C60.5456 25.8008 60.7539 25.7591 60.918 25.6758C61.0846 25.5898 61.2083 25.474 61.2891 25.3281C61.3724 25.1797 61.4141 25.013 61.4141 24.8281C61.4141 24.6094 61.3776 24.4258 61.3047 24.2773C61.2318 24.1289 61.1224 24.0169 60.9766 23.9414C60.8307 23.8659 60.6458 23.8281 60.4219 23.8281C60.2188 23.8281 60.0391 23.8685 59.8828 23.9492C59.7292 24.0273 59.6081 24.1393 59.5195 24.2852C59.4336 24.431 59.3906 24.6029 59.3906 24.8008H58.668C58.668 24.5117 58.7409 24.2487 58.8867 24.0117C59.0326 23.7747 59.237 23.5859 59.5 23.4453C59.7656 23.3047 60.0729 23.2344 60.4219 23.2344C60.7656 23.2344 61.0664 23.2956 61.3242 23.418C61.582 23.5378 61.7826 23.7174 61.9258 23.957C62.069 24.194 62.1406 24.4896 62.1406 24.8438C62.1406 24.987 62.1068 25.1406 62.0391 25.3047C61.974 25.4661 61.8711 25.6172 61.7305 25.7578C61.5924 25.8984 61.4128 26.0143 61.1914 26.1055C60.9701 26.194 60.7044 26.2383 60.3945 26.2383H59.7773V25.8008ZM59.7773 26.3945V25.9609H60.3945C60.7565 25.9609 61.056 26.0039 61.293 26.0898C61.5299 26.1758 61.7161 26.2904 61.8516 26.4336C61.9896 26.5768 62.0859 26.7344 62.1406 26.9062C62.1979 27.0755 62.2266 27.2448 62.2266 27.4141C62.2266 27.6797 62.181 27.9154 62.0898 28.1211C62.0013 28.3268 61.875 28.5013 61.7109 28.6445C61.5495 28.7878 61.3594 28.8958 61.1406 28.9688C60.9219 29.0417 60.6836 29.0781 60.4258 29.0781C60.1784 29.0781 59.9453 29.043 59.7266 28.9727C59.5104 28.9023 59.319 28.8008 59.1523 28.668C58.9857 28.5326 58.8555 28.3672 58.7617 28.1719C58.668 27.974 58.6211 27.7487 58.6211 27.4961H59.3438C59.3438 27.694 59.3867 27.8672 59.4727 28.0156C59.5612 28.1641 59.6862 28.2799 59.8477 28.3633C60.0117 28.444 60.2044 28.4844 60.4258 28.4844C60.6471 28.4844 60.8372 28.4466 60.9961 28.3711C61.1576 28.293 61.2812 28.1758 61.3672 28.0195C61.4557 27.8633 61.5 27.6667 61.5 27.4297C61.5 27.1927 61.4505 26.9987 61.3516 26.8477C61.2526 26.694 61.112 26.5807 60.9297 26.5078C60.75 26.4323 60.5378 26.3945 60.293 26.3945H59.7773Z" fill="white"/>
</svg>
