<svg width="90" height="33" viewBox="0 0 90 33" fill="none" xmlns="http://www.w3.org/2000/svg">
<g clip-path="url(#clip0_25_159)">
<g filter="url(#filter0_d_25_159)">
<path d="M27.052 0H6.24278C3.94426 0 2.08093 1.84683 2.08093 4.125V24.75C2.08093 27.0282 3.94426 28.875 6.24278 28.875H27.052C29.3506 28.875 31.2139 27.0282 31.2139 24.75V4.125C31.2139 1.84683 29.3506 0 27.052 0Z" fill="#0055FF"/>
</g>
<path d="M16.1271 13.4062L31.2138 9.79688V25.5234C30.9537 26.4687 29.9132 28.4625 27.8323 28.875H10.9248L16.1271 13.4062Z" fill="#0051F3"/>
<path d="M9.34633 13.1328H14.9399V14.9531H6.48865V13.6238L11.9754 5.79119H6.49624V3.95581H14.8179V5.25494L9.34633 13.1328Z" fill="white"/>
<path d="M25.313 25.2656H23.0268V20.5525H18.5688V25.2656H16.2826V14.2683H18.5688V18.7247H23.0268V14.2683H25.313V25.2656Z" fill="white"/>
<path d="M39.7327 11.1615H43.4617V12.375H37.8275V11.4887L41.4854 6.26706H37.8326V5.04346H43.3804V5.90953L39.7327 11.1615Z" fill="#0055FF"/>
<path d="M45.88 12.375H44.4067V6.92667H45.88V12.375ZM44.3203 5.51674C44.3203 5.29853 44.3931 5.11896 44.5388 4.97797C44.6878 4.83698 44.8893 4.76648 45.1433 4.76648C45.394 4.76648 45.5938 4.83698 45.7428 4.97797C45.8918 5.11896 45.9663 5.29853 45.9663 5.51674C45.9663 5.73831 45.8901 5.9196 45.7377 6.06057C45.5887 6.20155 45.3906 6.27208 45.1433 6.27208C44.8961 6.27208 44.6962 6.20155 44.5438 6.06057C44.3948 5.9196 44.3203 5.73831 44.3203 5.51674ZM48.4455 6.92667L48.4913 7.55609C48.8841 7.06934 49.4108 6.82597 50.0713 6.82597C50.6538 6.82597 51.0874 6.99551 51.3718 7.33453C51.6564 7.6736 51.802 8.18046 51.8088 8.85521V12.375H50.3405V8.89048C50.3405 8.58162 50.2728 8.35841 50.1373 8.22079C50.0019 8.07976 49.7766 8.00928 49.4617 8.00928C49.0484 8.00928 48.7385 8.18382 48.5319 8.53294V12.375H47.0637V6.92667H48.4455ZM55.2127 11.3024C55.4837 11.3024 55.7038 11.2286 55.8729 11.0809C56.0425 10.9332 56.1304 10.7368 56.1372 10.4918H57.5142C57.5106 10.861 57.4091 11.2001 57.2094 11.5089C57.0096 11.8144 56.7349 12.0527 56.3863 12.2239C56.0409 12.3918 55.658 12.4757 55.2382 12.4757C54.4521 12.4757 53.8325 12.2289 53.3784 11.7355C52.9247 11.2386 52.6979 10.5538 52.6979 9.68104V9.58534C52.6979 8.7461 52.9232 8.07641 53.3737 7.57625C53.8242 7.07605 54.4422 6.82597 55.2278 6.82597C55.9155 6.82597 56.4659 7.02067 56.879 7.41007C57.2957 7.79612 57.5074 8.31138 57.5142 8.95591H56.1372C56.1304 8.67397 56.0425 8.4457 55.8729 8.27111C55.7038 8.09322 55.4801 8.00422 55.2023 8.00422C54.8605 8.00422 54.6014 8.12844 54.4251 8.37686C54.2524 8.62194 54.166 9.0214 54.166 9.57528V9.72636C54.166 10.2869 54.2524 10.6898 54.4251 10.9348C54.5978 11.1799 54.8605 11.3024 55.2127 11.3024Z" fill="black"/>
<path d="M64.4265 23.7188H62.9022V20.5767H59.9301V23.7188H58.4064V16.3872H59.9301V19.3581H62.9022V16.3872H64.4265V23.7188Z" fill="#0055FF"/>
<path d="M68.1961 23.8195C67.3897 23.8195 66.7327 23.5744 66.225 23.0843C65.7203 22.5942 65.468 21.9412 65.468 21.1255V20.9845C65.468 20.4374 65.5747 19.9489 65.788 19.5192C66.0013 19.0862 66.303 18.7538 66.6921 18.5222C67.0849 18.2872 67.5323 18.1697 68.0333 18.1697C68.7855 18.1697 69.3765 18.4047 69.8067 18.8747C70.2401 19.3447 70.457 20.011 70.457 20.8737V21.4679H66.9564C67.0037 21.8238 67.1463 22.1091 67.383 22.3239C67.6239 22.5388 67.9266 22.6462 68.2923 22.6462C68.8584 22.6462 69.3 22.4431 69.6184 22.0369L70.34 22.8375C70.1199 23.1464 69.8218 23.3881 69.4457 23.5627C69.0701 23.7339 68.6534 23.8195 68.1961 23.8195ZM68.0286 19.348C67.7373 19.348 67.5 19.4454 67.3169 19.6401C67.1374 19.8348 67.0225 20.1134 66.9715 20.4759H69.0139V20.3601C69.0072 20.0379 68.9192 19.7895 68.7496 19.6149C68.5806 19.437 68.3402 19.348 68.0286 19.348ZM72.8444 23.7188H71.3711V15.9844H72.8444V23.7188ZM79.007 21.045C79.007 21.8842 78.814 22.5573 78.428 23.0642C78.0451 23.5677 77.527 23.8195 76.8736 23.8195C76.318 23.8195 75.869 23.6281 75.5272 23.2454V25.8135H74.0586V18.2705H75.4206L75.471 18.8042C75.8269 18.3812 76.2909 18.1697 76.8632 18.1697C77.5405 18.1697 78.067 18.4182 78.4431 18.915C78.8192 19.4118 79.007 20.0966 79.007 20.9694V21.045ZM77.5389 20.9392C77.5389 20.4323 77.4474 20.0412 77.2648 19.766C77.0848 19.4907 76.8226 19.3531 76.4771 19.3531C76.0162 19.3531 75.6999 19.5276 75.5272 19.8767V22.1074C75.7067 22.4666 76.0266 22.6462 76.487 22.6462C77.1883 22.6462 77.5389 22.0772 77.5389 20.9392ZM82.4515 23.8195C81.6456 23.8195 80.9886 23.5744 80.4803 23.0843C79.9757 22.5942 79.7234 21.9412 79.7234 21.1255V20.9845C79.7234 20.4374 79.83 19.9489 80.0433 19.5192C80.2566 19.0862 80.5584 18.7538 80.948 18.5222C81.3408 18.2872 81.7877 18.1697 82.2892 18.1697C83.0409 18.1697 83.6319 18.4047 84.0621 18.8747C84.4955 19.3447 84.7124 20.011 84.7124 20.8737V21.4679H81.2118C81.2596 21.8238 81.4017 22.1091 81.6389 22.3239C81.8792 22.5388 82.1825 22.6462 82.5482 22.6462C83.1137 22.6462 83.5559 22.4431 83.8743 22.0369L84.5954 22.8375C84.3753 23.1464 84.0772 23.3881 83.7016 23.5627C83.3255 23.7339 82.9088 23.8195 82.4515 23.8195ZM82.284 19.348C81.9926 19.348 81.7554 19.4454 81.5728 19.6401C81.3933 19.8348 81.2778 20.1134 81.2274 20.4759H83.2693V20.3601C83.2625 20.0379 83.1746 19.7895 83.0055 19.6149C82.8359 19.437 82.5956 19.348 82.284 19.348ZM88.6396 19.6351C88.4399 19.6082 88.2635 19.5948 88.1111 19.5948C87.5555 19.5948 87.1918 19.7811 87.0191 20.1537V23.7188H85.5505V18.2705H86.9374L86.978 18.92C87.273 18.4198 87.6808 18.1697 88.2026 18.1697C88.365 18.1697 88.5174 18.1916 88.6599 18.2352L88.6396 19.6351Z" fill="black"/>
</g>
<defs>
<filter id="filter0_d_25_159" x="-1.91907" y="0" width="37.1329" height="36.875" filterUnits="userSpaceOnUse" color-interpolation-filters="sRGB">
<feFlood flood-opacity="0" result="BackgroundImageFix"/>
<feColorMatrix in="SourceAlpha" type="matrix" values="0 0 0 0 0 0 0 0 0 0 0 0 0 0 0 0 0 0 127 0" result="hardAlpha"/>
<feOffset dy="4"/>
<feGaussianBlur stdDeviation="2"/>
<feColorMatrix type="matrix" values="0 0 0 0 0 0 0 0 0 0 0 0 0 0 0 0 0 0 0.25 0"/>
<feBlend mode="normal" in2="BackgroundImageFix" result="effect1_dropShadow_25_159"/>
<feBlend mode="normal" in="SourceGraphic" in2="effect1_dropShadow_25_159" result="shape"/>
</filter>
<clipPath id="clip0_25_159">
<rect width="90" height="33" fill="white"/>
</clipPath>
</defs>
</svg>
