<svg width="68" height="48" viewBox="0 0 68 48" fill="none" xmlns="http://www.w3.org/2000/svg">
<path d="M20.7529 47L65.6706 8.03528" stroke="#FF0000"/>
<path d="M1 12.5405C1 12.5405 1 25.3216 1 37.2085V12.5405ZM1 12.5405L21.0928 19.4649M1 12.5405L47.2569 1L66.4824 7.3473M21.0928 19.4649V46.7294L66.4824 7.3473M21.0928 19.4649L66.4824 7.3473" stroke="black"/>
<path d="M21.0235 47.0001L16.846 44.9734V22.9691L4.31325 18.0471V38.7485L1 37.1561" stroke="black"/>
<path d="M8.57648 10.7412L28.8706 17.3633V39.9647" stroke="black"/>
<path d="M16.153 8.84705L35.9059 15.4998V34.0118" stroke="black"/>
<path d="M22.647 7.22351L42.6706 13.7736V28.3294" stroke="black"/>
<path d="M29.1412 5.59998L48.6235 11.9498V22.9176" stroke="black"/>
<path d="M35.9059 3.97644L55.3882 10.3176V17.2353" stroke="black"/>
<path d="M41.8588 2.35291L61.3412 8.76377V11.8235" stroke="black"/>
</svg>
